# xmcd
#
# Track frame offsets: 
#        150
#        15380
#        30640
#        45482
#        58494
#        76840
#        93732
#        113333
#        129848
#        149256
#        168155
#        188267
#
# Disc length: 2712 seconds
#
# Revision: 5
# Processed by: cddbd v1.5.2PL0 Copyright (c) Steve Scherf et al.
# Submitted via: ExactAudioCopyFreeDBPlugin 1.0
#
DISCID=880a960c
DTITLE=Montgomery Gentry - Some People Change
DYEAR=2006
DGENRE=Country
TTITLE0=Some People Change
TTITLE1=Hey Country
TTITLE2=Lucky Man
TTITLE3=Takes All Kinds
TTITLE4=Your Tears Are Comin'
TTITLE5=Clouds
TTITLE6=Twenty Years Ago
TTITLE7=What Do Ya Think About That
TTITLE8=Redder Than That
TTITLE9=A Man's Job
TTITLE10=If You Wanna Keep An Angel
TTITLE11=Free Ride In The Fast Lane
EXTD=
EXTT0=
EXTT1=
EXTT2=
EXTT3=
EXTT4=
EXTT5=
EXTT6=
EXTT7=
EXTT8=
EXTT9=
EXTT10=
EXTT11=
PLAYORDER=
